<svg width="18" height="12" viewBox="0 0 18 12" xmlns="http://www.w3.org/2000/svg"><path d="M.574 1.286l7.5 4.03c.252.134.578.198.906.198.328 0 .654-.064.906-.2.252-.134 7.012-3.766 7.5-4.028.49-.263.95-1.286.054-1.286H.52c-.896 0-.434 1.023.054 1.286zm17.04 2.203c-.556.288-7.388 3.848-7.728 4.026-.34.178-.578.2-.906.2-.328 0-.566-.022-.906-.2C7.734 7.338.94 3.776.386 3.488c-.39-.204-.386.035-.386.22V11c0 .42.566 1 1 1h16c.434 0 1-.58 1-1V3.708c0-.184.004-.423-.387-.22z" fill="#AAA" fill-rule="evenodd"/></svg>