<svg viewBox="0 0 274 223" xmlns="http://www.w3.org/2000/svg"><path d="M85.98 223c-31.675 0-61.158-9.285-85.98-25.2 4.388.52 8.853.784 13.38.784 26.278 0 50.463-8.967 69.66-24.01-24.545-.453-45.26-16.67-52.396-38.953 3.424.656 6.938 1.007 10.552 1.007 5.116 0 10.07-.685 14.778-1.967-25.66-5.152-44.993-27.822-44.993-54.998 0-.236 0-.47.005-.705 7.563 4.2 16.21 6.724 25.406 7.015C21.34 75.914 11.44 58.746 11.44 39.287c0-10.28 2.766-19.914 7.594-28.198 27.664 33.933 68.993 56.263 115.61 58.602-.957-4.105-1.454-8.386-1.454-12.782 0-30.975 25.114-56.088 56.09-56.088 16.133 0 30.71 6.812 40.942 17.713 12.776-2.516 24.78-7.184 35.617-13.61-4.188 13.096-13.08 24.088-24.662 31.03 11.346-1.356 22.156-4.37 32.215-8.832-7.52 11.248-17.03 21.127-27.988 29.035.108 2.405.162 4.824.162 7.256C245.564 137.534 189.148 223 85.98 223" fill="#5E9FCB" fill-rule="evenodd"/></svg>