<svg width="1022" height="719" viewBox="0 0 1022 719" xmlns="http://www.w3.org/2000/svg"><path d="M1011.25 155.562s-9.98-70.39-40.608-101.386C931.8 13.493 888.262 13.29 868.296 10.91 725.36.577 510.946.577 510.946.577h-.444s-214.408 0-357.35 10.333c-19.967 2.38-63.49 2.583-102.345 43.266C20.18 85.173 10.215 155.562 10.215 155.562S0 238.222 0 320.882v77.492C0 481.032 10.215 563.69 10.215 563.69s9.966 70.39 40.592 101.388c38.856 40.684 89.896 39.397 112.63 43.66C245.152 716.576 510.724 719 510.724 719s214.634-.323 357.57-10.655c19.967-2.382 63.505-2.583 102.347-43.267 30.628-30.997 40.608-101.387 40.608-101.387s10.2-82.658 10.2-165.316V320.88c0-82.658-10.2-165.318-10.2-165.318zm-605.978 336.72l-.047-287 276 144-275.953 143z" fill="#D0011B" fill-rule="evenodd"/></svg>