<svg width="275" height="275" viewBox="0 0 275 275" xmlns="http://www.w3.org/2000/svg"><g fill="none" fill-rule="evenodd"><path d="M274.857 137.82c0 75.767-61.423 137.19-137.19 137.19-75.77 0-137.19-61.423-137.19-137.19C.476 62.05 61.896.627 137.666.627c75.767 0 137.19 61.422 137.19 137.19" fill="#FFF"/><path d="M137.507 15.85c-67.362 0-121.97 54.607-121.97 121.97 0 51.67 32.148 95.804 77.52 113.576-1.066-9.65-2.03-24.452.424-34.99 2.216-9.516 14.303-60.626 14.303-60.626s-3.65-7.305-3.65-18.107c0-16.96 9.832-29.62 22.07-29.62 10.407 0 15.433 7.813 15.433 17.18 0 10.465-6.662 26.11-10.1 40.61-2.874 12.142 6.087 22.043 18.06 22.043 21.68 0 38.343-22.86 38.343-55.855 0-29.202-20.984-49.62-50.95-49.62-34.703 0-55.073 26.03-55.073 52.93 0 10.483 4.04 21.724 9.077 27.835.996 1.208 1.142 2.266.845 3.497-.926 3.855-2.984 12.14-3.387 13.834-.532 2.233-1.77 2.706-4.08 1.63-15.234-7.09-24.757-29.363-24.757-47.25 0-38.476 27.955-73.81 80.59-73.81 42.31 0 75.19 30.15 75.19 70.443 0 42.036-26.503 75.865-63.29 75.865-12.36 0-23.978-6.42-27.955-14.006 0 0-6.115 23.288-7.597 28.993-2.755 10.594-10.188 23.874-15.16 31.975 11.412 3.534 23.54 5.44 36.114 5.44 67.362 0 121.97-54.607 121.97-121.97 0-67.36-54.608-121.97-121.97-121.97" fill="#AA2529"/></g></svg>